<svg width="1200" height="600" viewBox="0 0 1200 600" fill="none" xmlns="http://www.w3.org/2000/svg">
<g clip-path="url(#clip0)">
<rect width="1200" height="600" fill="white"/>
<path d="M1408 -29H-209V628H1408V-29Z" fill="#FF565C"/>
<path d="M599.5 514.451C669.06 514.451 724.708 458.82 724.708 389.28C724.708 385.308 724.13 375.73 724.13 375.73C720.157 337.985 700.857 309.811 682.966 278.018C653.15 230.336 623.351 178.677 647.202 93.2435C647.918 89.5197 647.381 86.8351 645.215 85.2994C642.905 83.6714 639.677 84.8664 637.263 87.2854C629.316 95.2294 474.298 270.073 474.298 389.28C474.298 456.834 529.946 514.451 599.5 514.451Z" fill="#FFDDDF"/>
<path d="M489.544 364.097C493.298 343.221 496.52 332.575 504.467 312.005C512.904 290.188 534.849 238.967 562.534 258.077C588.949 276.315 552.543 302.41 579.859 317.542C607.175 332.673 649.315 302.45 669.949 342.367C690.583 382.283 671.428 389.188 682.244 398.564C693.061 407.94 699.927 430.167 694.152 445.31C688.377 460.454 660.01 499.85 608.238 501.265C547.329 502.928 472.97 456.395 489.544 364.097Z" fill="#EE3D3D"/>
</g>
<defs>
<clipPath id="clip0">
<rect width="1200" height="600" fill="white"/>
</clipPath>
</defs>
</svg>
